<svg class="logo-marca" xmlns="http://www.w3.org/2000/svg" viewBox="0 0 173 50" fill="#c00" role="img" aria-hidden="true"><path d="M27.9 1.4h15v10.3h-2.6v26.6h2.6v10.4h-16V38.3h2.5V21.7L22 42l-7.3-20.3v16.6h2.6v10.4H1.1V38.3h2.6V11.7H1V1.4h15.6l5.6 16"></path><g class="arca"><path d="M75.1 38.3l-5.9-37H52.3l-5.9 37h-1.9v10.3h14.7V38.3h-1.9l.1-3.9h6.8v3.9h-2v10.3H77V38.3h-1.9zM58.4 28.2l2.3-14.6 2.4 14.6h-4.7z"></path><path d="M107.7 38.3v-9.2l-4-4 4-4V6.4l-4.9-5H78.7v10.2h2.5v26.6h-2.5v10.4h16V38.3h-1.8v-8.5h3.4v18.9h14.1V38.3h-2.7zM96.2 22.4h-3.5V11.6h3.5v10.8z"></path><path d="M132.9 1.4l5 5V21h-11.5v-9.2l-3.4-.1v26.6h3.4v-9.2h11.5v14.5l-5 5.1h-16.3l-4.8-5.1V6.4l4.8-5"></path><path d="M170.1 38.3l-5.9-37h-16.8l-5.9 37h-1.8v10.3h14.6V38.3h-1.9l.1-3.9h6.8v3.9h-1.9v10.3H172V38.3h-1.9zm-16.7-10.1l2.3-14.6 2.4 14.6h-4.7z"></path></g></svg>